Coordinates
version=1
nRows=31
nColumns=38
inDegrees=no

Units are S.I. units (second, meters, Newtons, ...)
If the header above contains a line with 'inDegrees', this indicates whether rotational values are in degrees (yes) or radians (no).

endheader
time	pelvis_tilt	pelvis_list	pelvis_rotation	pelvis_tx	pelvis_ty	pelvis_tz	hip_flexion_r	hip_adduction_r	hip_rotation_r	knee_angle_r	ankle_angle_r	subtalar_angle_r	mtp_angle_r	hip_flexion_l	hip_adduction_l	hip_rotation_l	knee_angle_l	ankle_angle_l	subtalar_angle_l	mtp_angle_l	lumbar_extension	lumbar_bending	lumbar_rotation	arm_flex_r	arm_add_r	arm_rot_r	elbow_flex_r	pro_sup_r	wrist_flex_r	wrist_dev_r	arm_flex_l	arm_add_l	arm_rot_l	elbow_flex_l	pro_sup_l	wrist_flex_l	wrist_dev_l
0	0.991101	1.45685	0.597473	0.709923	-0.60932	0.999034	0.561054	0.16132	-0.0577206	0.692062	-0.173771	0	0	-0.163125	-0.108115	-0.291574	0.770603	-0.206203	0	0	-0.335308	0.0728248	0.0139875	0.0354231	-0.418243	0.883031	0.535433	0.885849	0	0	-0.126325	-0.295178	0.346548	0.571962	1.28822	0	0
0.01	1.00985	1.45425	0.575329	0.711507	-0.597294	0.99992	0.548694	0.169881	-0.0587129	0.688542	-0.170354	0	0	-0.144016	-0.116593	-0.276802	0.819528	-0.229366	0	0	-0.333971	0.0749191	0.0125423	0.0390937	-0.417948	0.896187	0.53569	0.875767	0	0	-0.130609	-0.296331	0.343689	0.571785	1.28241	0	0
0.02	1.01348	1.45053	0.570246	0.712844	-0.585764	1.00052	0.539424	0.176953	-0.0604176	0.687871	-0.163737	0	0	-0.118697	-0.123325	-0.253243	0.873422	-0.249064	0	0	-0.331415	0.0774166	0.0106304	0.0420929	-0.418526	0.907038	0.537694	0.867569	0	0	-0.135261	-0.299081	0.341788	0.57473	1.27986	0	0
0.03	1.00573	1.44508	0.577199	0.714058	-0.574715	1.00082	0.533013	0.184129	-0.0613913	0.68896	-0.155682	0	0	-0.0877608	-0.129199	-0.224557	0.931589	-0.263135	0	0	-0.327174	0.080971	0.00965474	0.0443764	-0.420574	0.916762	0.541783	0.861241	0	0	-0.13936	-0.302217	0.340034	0.579949	1.27821	0	0
0.04	0.993047	1.43865	0.58915	0.715114	-0.564168	1.00107	0.528102	0.190618	-0.0628104	0.690762	-0.147405	0	0	-0.0532121	-0.133909	-0.193446	0.991504	-0.272105	0	0	-0.322384	0.0852046	0.00985014	0.0464946	-0.423846	0.925375	0.547165	0.855677	0	0	-0.14312	-0.305395	0.338225	0.586529	1.27686	0	0
0.05	0.979883	1.43276	0.601763	0.71594	-0.553953	1.00138	0.522911	0.195697	-0.0629252	0.692646	-0.139205	0	0	-0.0173719	-0.136482	-0.161734	1.05101	-0.273203	0	0	-0.318758	0.0891696	0.0102817	0.0485823	-0.428418	0.932456	0.554656	0.849578	0	0	-0.14695	-0.308611	0.335153	0.59613	1.27435	0	0
0.06	0.970009	1.42728	0.608545	0.716914	-0.54375	1.00171	0.51665	0.201644	-0.0607752	0.693923	-0.131329	0	0	0.0173461	-0.139095	-0.135891	1.1084	-0.262248	0	0	-0.315988	0.0920393	0.0139992	0.0498999	-0.433742	0.938261	0.563499	0.842317	0	0	-0.151827	-0.312156	0.330764	0.608639	1.27278	0	0
0.07	0.967186	1.42312	0.605259	0.718189	-0.533411	1.00224	0.507879	0.208632	-0.0579483	0.693648	-0.12383	0	0	0.0493546	-0.141199	-0.11615	1.1623	-0.242114	0	0	-0.314803	0.0934133	0.0210384	0.0513683	-0.438891	0.94467	0.571946	0.836085	0	0	-0.157007	-0.315327	0.324734	0.622323	1.27061	0	0
0.08	0.974323	1.4223	0.591695	0.719598	-0.523205	1.00324	0.495312	0.214003	-0.0571552	0.691918	-0.116531	0	0	0.0785342	-0.139942	-0.0980228	1.21235	-0.219523	0	0	-0.317512	0.0923237	0.0283075	0.0540613	-0.442597	0.951257	0.579203	0.829906	0	0	-0.161252	-0.318909	0.318093	0.635726	1.26855	0	0
0.09	0.986061	1.42438	0.573336	0.720951	-0.513224	1.00462	0.480428	0.216732	-0.0577794	0.690084	-0.11007	0	0	0.105378	-0.138023	-0.0878714	1.25674	-0.197848	0	0	-0.322794	0.088591	0.0356127	0.0577077	-0.444686	0.957593	0.584382	0.823171	0	0	-0.16405	-0.322984	0.312349	0.648727	1.26893	0	0
0.1	0.999181	1.42842	0.552955	0.72227	-0.503341	1.00627	0.463889	0.217609	-0.0577491	0.687911	-0.104798	0	0	0.131183	-0.135079	-0.0830024	1.2957	-0.177863	0	0	-0.329477	0.0830599	0.0427436	0.0623744	-0.445429	0.963786	0.587418	0.815612	0	0	-0.165544	-0.326503	0.307013	0.659738	1.26949	0	0
0.11	1.01071	1.43396	0.533705	0.723421	-0.493485	1.00813	0.446099	0.216471	-0.0568287	0.685154	-0.100431	0	0	0.156789	-0.130379	-0.0807074	1.32923	-0.161078	0	0	-0.336357	0.0760722	0.0500682	0.0669223	-0.44514	0.969104	0.588335	0.808627	0	0	-0.164811	-0.328845	0.303423	0.666603	1.26971	0	0
0.12	1.01519	1.43981	0.523622	0.724241	-0.48343	1.01004	0.427816	0.212928	-0.0580258	0.679998	-0.0953475	0	0	0.183784	-0.124836	-0.0787153	1.35742	-0.146345	0	0	-0.34149	0.069172	0.0556223	0.0710691	-0.443108	0.974096	0.585652	0.800873	0	0	-0.161779	-0.329925	0.302003	0.668423	1.27002	0	0
0.13	1.02082	1.44645	0.513371	0.72479	-0.473253	1.01207	0.407997	0.207696	-0.0603307	0.673135	-0.0903076	0	0	0.210131	-0.119195	-0.0783007	1.37953	-0.134519	0	0	-0.346276	0.062175	0.0605775	0.0751706	-0.439907	0.979672	0.580056	0.793823	0	0	-0.156832	-0.330114	0.302427	0.66671	1.26999	0	0
0.14	1.03834	1.45427	0.491084	0.725257	-0.462993	1.01433	0.385399	0.201991	-0.0624911	0.664689	-0.085516	0	0	0.233538	-0.114394	-0.0810113	1.39498	-0.12529	0	0	-0.352437	0.0548526	0.0657432	0.0793471	-0.436295	0.985231	0.573404	0.786819	0	0	-0.150614	-0.32952	0.303157	0.662987	1.2693	0	0
0.15	1.0562	1.46216	0.468488	0.725762	-0.452793	1.01655	0.363124	0.196302	-0.0640905	0.655805	-0.0809822	0	0	0.256619	-0.110664	-0.0855333	1.40515	-0.118755	0	0	-0.358299	0.0472886	0.0702474	0.0837138	-0.432579	0.990611	0.56696	0.779509	0	0	-0.144251	-0.329175	0.304715	0.658602	1.26835	0	0
0.16	1.06449	1.46961	0.455626	0.726306	-0.442688	1.0186	0.342495	0.190873	-0.0648064	0.646162	-0.0767697	0	0	0.280716	-0.107591	-0.090856	1.40977	-0.114823	0	0	-0.362511	0.0396747	0.0736423	0.0882482	-0.429025	0.996291	0.561121	0.772413	0	0	-0.138364	-0.329778	0.308311	0.654671	1.26757	0	0
0.17	1.05521	1.47583	0.460377	0.726854	-0.432722	1.02034	0.323961	0.186271	-0.0629707	0.635601	-0.07246	0	0	0.306288	-0.106188	-0.0976925	1.40831	-0.111962	0	0	-0.364174	0.0325593	0.0765331	0.0925511	-0.426211	1.00247	0.55648	0.765958	0	0	-0.13295	-0.330837	0.313144	0.651002	1.266	0	0
0.18	1.0367	1.48134	0.47491	0.727342	-0.422703	1.02179	0.307351	0.18159	-0.0604864	0.627761	-0.0679089	0	0	0.331682	-0.106491	-0.105834	1.40125	-0.108208	0	0	-0.364224	0.0260132	0.0787552	0.0961284	-0.424122	1.00842	0.553126	0.759648	0	0	-0.128374	-0.331816	0.317655	0.647638	1.26289	0	0
0.19	1.02436	1.48641	0.483717	0.727665	-0.412583	1.02311	0.290154	0.17709	-0.0576134	0.619878	-0.0633843	0	0	0.354936	-0.108672	-0.115572	1.38857	-0.103524	0	0	-0.364441	0.0205292	0.0806554	0.0993453	-0.423194	1.01446	0.551125	0.753736	0	0	-0.12429	-0.332399	0.321818	0.644767	1.25859	0	0
0.2	1.03058	1.49123	0.473161	0.727946	-0.402408	1.02443	0.270762	0.173685	-0.0525748	0.610549	-0.0590475	0	0	0.374562	-0.113926	-0.129203	1.37076	-0.0991443	0	0	-0.366023	0.0160625	0.0832955	0.102696	-0.423748	1.02099	0.550839	0.748364	0	0	-0.120901	-0.332912	0.325641	0.643108	1.25295	0	0
0.21	1.06405	1.4963	0.43541	0.728113	-0.392159	1.02579	0.248527	0.17056	-0.0480552	0.599295	-0.05432	0	0	0.390182	-0.121629	-0.146626	1.34779	-0.0974458	0	0	-0.369649	0.0126018	0.0857383	0.106535	-0.425893	1.02903	0.552465	0.741812	0	0	-0.118024	-0.333849	0.330547	0.642823	1.2449	0	0
0.22	1.11435	1.50124	0.380608	0.728287	-0.381785	1.02706	0.225322	0.167709	-0.0433523	0.587895	-0.0496652	0	0	0.403084	-0.131163	-0.167857	1.31992	-0.0985974	0	0	-0.373944	0.00954212	0.0881937	0.109854	-0.429037	1.03669	0.555679	0.734349	0	0	-0.115818	-0.334862	0.335842	0.64269	1.23872	0	0
0.23	1.17371	1.50592	0.316814	0.728491	-0.371378	1.02822	0.202079	0.164718	-0.0398141	0.576241	-0.0456854	0	0	0.414092	-0.141076	-0.190885	1.28852	-0.10176	0	0	-0.378291	0.00675584	0.0901724	0.113052	-0.432055	1.0432	0.558851	0.728323	0	0	-0.113899	-0.335465	0.340291	0.642099	1.23581	0	0
0.24	1.25913	1.51036	0.226319	0.728747	-0.360887	1.02939	0.177151	0.161768	-0.0364847	0.563305	-0.0412412	0	0	0.421432	-0.151943	-0.217963	1.25267	-0.10662	0	0	-0.38371	0.00394895	0.0926837	0.116719	-0.435851	1.05167	0.562963	0.72158	0	0	-0.11259	-0.336222	0.344159	0.642866	1.23131	0	0
0.25	1.3388	1.51442	0.142015	0.728912	-0.35035	1.03032	0.153808	0.157737	-0.0345547	0.551168	-0.0369315	0	0	0.427677	-0.161029	-0.245221	1.21236	-0.111728	0	0	-0.388105	0.000857077	0.0943071	0.120602	-0.43899	1.05983	0.566234	0.7149	0	0	-0.112644	-0.337336	0.346779	0.64561	1.22614	0	0
0.26	1.40433	1.51808	0.071976	0.729014	-0.339752	1.03099	0.132233	0.153193	-0.032182	0.540366	-0.0320755	0	0	0.433091	-0.168213	-0.27221	1.16818	-0.117779	0	0	-0.390881	-0.00225244	0.0955913	0.124304	-0.441283	1.06803	0.567939	0.708514	0	0	-0.113313	-0.338156	0.348929	0.648148	1.22137	0	0
0.27	1.45096	1.52123	0.020648	0.729105	-0.329293	1.03148	0.111999	0.149067	-0.0283221	0.529235	-0.0276629	0	0	0.438088	-0.174156	-0.298943	1.12038	-0.126758	0	0	-0.392431	-0.00513792	0.0969594	0.128232	-0.442793	1.07647	0.568026	0.70285	0	0	-0.113569	-0.338149	0.350653	0.649231	1.21721	0	0
0.28	1.47798	1.52395	-0.010262	0.729048	-0.318915	1.03183	0.0921864	0.144492	-0.0305439	0.51421	-0.0248808	0	0	0.442517	-0.17758	-0.324032	1.06857	-0.137945	0	0	-0.392935	-0.00746506	0.097911	0.132148	-0.443352	1.08438	0.566204	0.697378	0	0	-0.112906	-0.337385	0.352728	0.648595	1.21434	0	0
0.29	1.48258	1.52652	-0.0184134	0.728901	-0.308462	1.0319	0.0761434	0.13938	-0.033045	0.505606	-0.0231606	0	0	0.446226	-0.178654	-0.349004	1.01376	-0.14896	0	0	-0.391995	-0.00969071	0.0990014	0.135339	-0.443293	1.09145	0.563095	0.691966	0	0	-0.111907	-0.336074	0.354845	0.646743	1.21337	0	0
0.3	1.4329	1.5286	0.0280285	0.728589	-0.29799	1.03156	0.0637802	0.134593	-0.0335638	0.500474	-0.0208278	0	0	0.451251	-0.177522	-0.372257	0.957411	-0.158201	0	0	-0.388341	-0.0110895	0.100102	0.137845	-0.44328	1.09818	0.559483	0.687498	0	0	-0.110451	-0.333394	0.356508	0.642312	1.21334	0	0
